<?xml version="1.0" encoding="UTF-8"?>
<svg width="24pt" height="24pt" fill="#ffffff" version="1.1" viewBox="0 0 752 752" xmlns="http://www.w3.org/2000/svg">
 <path d="m426.42 376.49 151.91-151.97c13.562-13.586 13.562-35.707-0.007813-49.297-13.164-13.164-36.129-13.164-49.297 0l-151.91 151.97-154.13-154.12c-13.566-13.566-35.676-13.566-49.281 0-13.598 13.586-13.598 35.707 0 49.297l154.12 154.13-153.05 153.12c-13.598 13.586-13.598 35.707 0 49.297 6.5742 6.5859 15.332 10.203 24.648 10.203 9.293 0 18.047-3.6172 24.648-10.199l153.05-153.11 151.9 151.9c6.5938 6.5625 15.348 10.188 24.641 10.188s18.047-3.6172 24.656-10.199c13.562-13.586 13.562-35.707-0.007813-49.297z"/>
</svg>
