<?xml version="1.0" encoding="UTF-8"?>
<svg width="30pt" height="30pt" fill="#ffffff" version="1.1" viewBox="0 0 752 752" xmlns="http://www.w3.org/2000/svg">
 <g>
  <path d="m524 213.21h-295.99c-3.9258 0-7.6914 1.5586-10.465 4.3359-2.7773 2.7734-4.3359 6.5391-4.3359 10.465v295.99c0 3.9258 1.5586 7.6875 4.3359 10.465 2.7734 2.7734 6.5391 4.332 10.465 4.332h295.99c3.9258 0 7.6875-1.5586 10.465-4.332 2.7734-2.7773 4.332-6.5391 4.332-10.465v-295.99c0-3.9258-1.5586-7.6914-4.332-10.465-2.7773-2.7773-6.5391-4.3359-10.465-4.3359zm-14.801 295.99h-266.39v-266.39h266.39z"/>
  <path d="m287.2 361.2c3.9258 0 7.6914-1.5586 10.465-4.3359 2.7773-2.7734 4.3359-6.5391 4.3359-10.465v-44.398h44.398c5.2891 0 10.172-2.8203 12.816-7.3984s2.6445-10.223 0-14.801c-2.6445-4.5781-7.5273-7.3984-12.816-7.3984h-59.199c-3.9219 0-7.6875 1.5586-10.465 4.332-2.7734 2.7773-4.332 6.543-4.332 10.465v59.199c0 3.9258 1.5586 7.6914 4.332 10.465 2.7773 2.7773 6.543 4.3359 10.465 4.3359z"/>
  <path d="m405.6 479.6h59.199-0.003906c3.9258 0 7.6914-1.5586 10.465-4.3359 2.7773-2.7734 4.3359-6.5391 4.3359-10.465v-59.195c0-5.2891-2.8203-10.176-7.3984-12.816-4.582-2.6445-10.223-2.6445-14.801 0-4.5781 2.6406-7.3984 7.5273-7.3984 12.816v44.398h-44.398c-5.2891 0-10.176 2.8203-12.816 7.3984-2.6445 4.5781-2.6445 10.219 0 14.801 2.6406 4.5781 7.5273 7.3984 12.816 7.3984z"/>
 </g>
</svg>
