<?xml version="1.0" encoding="UTF-8"?>
<svg width="24pt" height="24pt" fill="#ffffff" version="1.1" viewBox="0 0 752 752" xmlns="http://www.w3.org/2000/svg">
 <path d="m545.9 597.99h-340.39c-13.699-0.19531-26.777-5.7617-36.41-15.508-9.6328-9.7422-15.055-22.883-15.09-36.586v-340.39c0.19141-13.699 5.7617-26.777 15.508-36.41 9.7422-9.6328 22.883-15.055 36.586-15.09h340.39c13.699 0.19141 26.777 5.7617 36.41 15.508 9.6328 9.7422 15.051 22.883 15.09 36.586v340.39c-0.19531 13.699-5.7617 26.777-15.508 36.41-9.7422 9.6328-22.883 15.051-36.586 15.09zm-339.79-409.35c-4.6328 0-9.0742 1.8398-12.352 5.1133-3.2734 3.2773-5.1133 7.7188-5.1133 12.352v340.39c0 4.6289 1.8398 9.0703 5.1133 12.348 3.2773 3.2734 7.7188 5.1133 12.352 5.1133h340.39c4.6289 0 9.0703-1.8398 12.348-5.1133 3.2734-3.2773 5.1133-7.7188 5.1133-12.348v-340.39c0-4.6328-1.8398-9.0742-5.1133-12.352-3.2773-3.2734-7.7188-5.1133-12.348-5.1133zm322.48 340.39h-305.17v-103.6h305.16zm-270.98-34.629h236.79v-35.078h-236.79z"/>
</svg>
